<mxfile host="Electron" modified="2023-08-24T16:02:39.190Z" agent="Mozilla/5.0 (X11; Linux x86_64) AppleWebKit/537.36 (KHTML, like Gecko) draw.io/21.6.8 Chrome/114.0.5735.289 Electron/25.5.0 Safari/537.36" etag="hHacjTOsh-Ltn-3vUmG8" version="21.6.8" type="device">
  <diagram name="Page-1" id="qvCDSHAoeZoeQIN2Krak">
    <mxGraphModel dx="908" dy="1004" grid="1" gridSize="10" guides="1" tooltips="1" connect="1" arrows="1" fold="1" page="1" pageScale="1" pageWidth="827" pageHeight="1169" math="0" shadow="0">
      <root>
        <mxCell id="0" />
        <mxCell id="1" parent="0" />
        <mxCell id="5phEGlq9JA1GHNM602J6-9" value="CPU" style="rounded=0;whiteSpace=wrap;html=1;align=center;spacing=2;spacingBottom=-400;fontFamily=IBM Plex Mono;fontSource=https%3A%2F%2Ffonts.googleapis.com%2Fcss%3Ffamily%3DIBM%2BPlex%2BMono;fontSize=32;fontStyle=1" vertex="1" parent="1">
          <mxGeometry y="30" width="400" height="460" as="geometry" />
        </mxCell>
        <mxCell id="5phEGlq9JA1GHNM602J6-1" value="CORE" style="rounded=0;whiteSpace=wrap;html=1;fontFamily=IBM Plex Mono;fontSource=https%3A%2F%2Ffonts.googleapis.com%2Fcss%3Ffamily%3DIBM%2BPlex%2BMono;fontSize=24;fillColor=#dae8fc;strokeColor=#6c8ebf;" vertex="1" parent="1">
          <mxGeometry x="10" y="40" width="120" height="120" as="geometry" />
        </mxCell>
        <mxCell id="5phEGlq9JA1GHNM602J6-3" value="CORE" style="rounded=0;whiteSpace=wrap;html=1;fontFamily=IBM Plex Mono;fontSource=https%3A%2F%2Ffonts.googleapis.com%2Fcss%3Ffamily%3DIBM%2BPlex%2BMono;fontSize=24;fillColor=#dae8fc;strokeColor=#6c8ebf;" vertex="1" parent="1">
          <mxGeometry x="140" y="40" width="120" height="120" as="geometry" />
        </mxCell>
        <mxCell id="5phEGlq9JA1GHNM602J6-4" value="CORE" style="rounded=0;whiteSpace=wrap;html=1;fontFamily=IBM Plex Mono;fontSource=https%3A%2F%2Ffonts.googleapis.com%2Fcss%3Ffamily%3DIBM%2BPlex%2BMono;fontSize=24;fillColor=#dae8fc;strokeColor=#6c8ebf;" vertex="1" parent="1">
          <mxGeometry x="10" y="170" width="120" height="120" as="geometry" />
        </mxCell>
        <mxCell id="5phEGlq9JA1GHNM602J6-5" value="CORE" style="rounded=0;whiteSpace=wrap;html=1;fontFamily=IBM Plex Mono;fontSource=https%3A%2F%2Ffonts.googleapis.com%2Fcss%3Ffamily%3DIBM%2BPlex%2BMono;fontSize=24;fillColor=#dae8fc;strokeColor=#6c8ebf;" vertex="1" parent="1">
          <mxGeometry x="140" y="170" width="120" height="120" as="geometry" />
        </mxCell>
        <mxCell id="5phEGlq9JA1GHNM602J6-6" value="CONTROL&lt;br style=&quot;font-size: 24px;&quot;&gt;UNIT" style="rounded=0;whiteSpace=wrap;html=1;fontFamily=IBM Plex Mono;fontSource=https%3A%2F%2Ffonts.googleapis.com%2Fcss%3Ffamily%3DIBM%2BPlex%2BMono;fontSize=24;fillColor=#d5e8d4;strokeColor=#82b366;" vertex="1" parent="1">
          <mxGeometry x="270" y="40" width="120" height="250" as="geometry" />
        </mxCell>
        <mxCell id="5phEGlq9JA1GHNM602J6-7" value="CACHES" style="rounded=0;whiteSpace=wrap;html=1;fontFamily=IBM Plex Mono;fontSource=https%3A%2F%2Ffonts.googleapis.com%2Fcss%3Ffamily%3DIBM%2BPlex%2BMono;fontSize=24;fillColor=#f8cecc;strokeColor=#b85450;" vertex="1" parent="1">
          <mxGeometry x="10" y="300" width="380" height="40" as="geometry" />
        </mxCell>
        <mxCell id="5phEGlq9JA1GHNM602J6-8" value="DRAM" style="rounded=0;whiteSpace=wrap;html=1;fontFamily=IBM Plex Mono;fontSource=https%3A%2F%2Ffonts.googleapis.com%2Fcss%3Ffamily%3DIBM%2BPlex%2BMono;fontSize=24;fillColor=#fff2cc;strokeColor=#d6b656;" vertex="1" parent="1">
          <mxGeometry x="10" y="350" width="380" height="80" as="geometry" />
        </mxCell>
        <mxCell id="5phEGlq9JA1GHNM602J6-10" value="GPU" style="rounded=0;whiteSpace=wrap;html=1;align=center;spacing=2;spacingBottom=-400;fontFamily=IBM Plex Mono;fontSource=https%3A%2F%2Ffonts.googleapis.com%2Fcss%3Ffamily%3DIBM%2BPlex%2BMono;fontSize=32;fontStyle=1" vertex="1" parent="1">
          <mxGeometry x="420" y="30" width="400" height="460" as="geometry" />
        </mxCell>
        <mxCell id="5phEGlq9JA1GHNM602J6-11" value="VRAM" style="rounded=0;whiteSpace=wrap;html=1;fontFamily=IBM Plex Mono;fontSource=https%3A%2F%2Ffonts.googleapis.com%2Fcss%3Ffamily%3DIBM%2BPlex%2BMono;fontSize=24;fillColor=#fff2cc;strokeColor=#d6b656;" vertex="1" parent="1">
          <mxGeometry x="430" y="350" width="380" height="80" as="geometry" />
        </mxCell>
        <mxCell id="5phEGlq9JA1GHNM602J6-12" value="" style="rounded=0;whiteSpace=wrap;html=1;fillColor=#d5e8d4;strokeColor=#82b366;" vertex="1" parent="1">
          <mxGeometry x="430" y="40" width="40" height="10" as="geometry" />
        </mxCell>
        <mxCell id="5phEGlq9JA1GHNM602J6-13" value="" style="rounded=0;whiteSpace=wrap;html=1;fillColor=#f8cecc;strokeColor=#b85450;" vertex="1" parent="1">
          <mxGeometry x="430" y="50" width="40" height="10" as="geometry" />
        </mxCell>
        <mxCell id="5phEGlq9JA1GHNM602J6-14" value="" style="rounded=0;whiteSpace=wrap;html=1;fillColor=#d5e8d4;strokeColor=#82b366;" vertex="1" parent="1">
          <mxGeometry x="430" y="70" width="40" height="10" as="geometry" />
        </mxCell>
        <mxCell id="5phEGlq9JA1GHNM602J6-15" value="" style="rounded=0;whiteSpace=wrap;html=1;fillColor=#f8cecc;strokeColor=#b85450;" vertex="1" parent="1">
          <mxGeometry x="430" y="80" width="40" height="10" as="geometry" />
        </mxCell>
        <mxCell id="5phEGlq9JA1GHNM602J6-16" value="" style="rounded=0;whiteSpace=wrap;html=1;fillColor=#d5e8d4;strokeColor=#82b366;" vertex="1" parent="1">
          <mxGeometry x="430" y="100" width="40" height="10" as="geometry" />
        </mxCell>
        <mxCell id="5phEGlq9JA1GHNM602J6-17" value="" style="rounded=0;whiteSpace=wrap;html=1;fillColor=#f8cecc;strokeColor=#b85450;" vertex="1" parent="1">
          <mxGeometry x="430" y="110" width="40" height="10" as="geometry" />
        </mxCell>
        <mxCell id="5phEGlq9JA1GHNM602J6-18" value="" style="rounded=0;whiteSpace=wrap;html=1;fillColor=#d5e8d4;strokeColor=#82b366;" vertex="1" parent="1">
          <mxGeometry x="430" y="130" width="40" height="10" as="geometry" />
        </mxCell>
        <mxCell id="5phEGlq9JA1GHNM602J6-19" value="" style="rounded=0;whiteSpace=wrap;html=1;fillColor=#f8cecc;strokeColor=#b85450;" vertex="1" parent="1">
          <mxGeometry x="430" y="140" width="40" height="10" as="geometry" />
        </mxCell>
        <mxCell id="5phEGlq9JA1GHNM602J6-20" value="" style="rounded=0;whiteSpace=wrap;html=1;fillColor=#d5e8d4;strokeColor=#82b366;" vertex="1" parent="1">
          <mxGeometry x="430" y="160" width="40" height="10" as="geometry" />
        </mxCell>
        <mxCell id="5phEGlq9JA1GHNM602J6-21" value="" style="rounded=0;whiteSpace=wrap;html=1;fillColor=#f8cecc;strokeColor=#b85450;" vertex="1" parent="1">
          <mxGeometry x="430" y="170" width="40" height="10" as="geometry" />
        </mxCell>
        <mxCell id="5phEGlq9JA1GHNM602J6-22" value="" style="rounded=0;whiteSpace=wrap;html=1;fillColor=#d5e8d4;strokeColor=#82b366;" vertex="1" parent="1">
          <mxGeometry x="430" y="190" width="40" height="10" as="geometry" />
        </mxCell>
        <mxCell id="5phEGlq9JA1GHNM602J6-23" value="" style="rounded=0;whiteSpace=wrap;html=1;fillColor=#f8cecc;strokeColor=#b85450;" vertex="1" parent="1">
          <mxGeometry x="430" y="200" width="40" height="10" as="geometry" />
        </mxCell>
        <mxCell id="5phEGlq9JA1GHNM602J6-24" value="" style="rounded=0;whiteSpace=wrap;html=1;fillColor=#d5e8d4;strokeColor=#82b366;" vertex="1" parent="1">
          <mxGeometry x="430" y="220" width="40" height="10" as="geometry" />
        </mxCell>
        <mxCell id="5phEGlq9JA1GHNM602J6-25" value="" style="rounded=0;whiteSpace=wrap;html=1;fillColor=#f8cecc;strokeColor=#b85450;" vertex="1" parent="1">
          <mxGeometry x="430" y="230" width="40" height="10" as="geometry" />
        </mxCell>
        <mxCell id="5phEGlq9JA1GHNM602J6-26" value="" style="rounded=0;whiteSpace=wrap;html=1;fillColor=#d5e8d4;strokeColor=#82b366;" vertex="1" parent="1">
          <mxGeometry x="430" y="250" width="40" height="10" as="geometry" />
        </mxCell>
        <mxCell id="5phEGlq9JA1GHNM602J6-27" value="" style="rounded=0;whiteSpace=wrap;html=1;fillColor=#f8cecc;strokeColor=#b85450;" vertex="1" parent="1">
          <mxGeometry x="430" y="260" width="40" height="10" as="geometry" />
        </mxCell>
        <mxCell id="5phEGlq9JA1GHNM602J6-28" value="" style="rounded=0;whiteSpace=wrap;html=1;fillColor=#d5e8d4;strokeColor=#82b366;" vertex="1" parent="1">
          <mxGeometry x="430" y="280" width="40" height="10" as="geometry" />
        </mxCell>
        <mxCell id="5phEGlq9JA1GHNM602J6-29" value="" style="rounded=0;whiteSpace=wrap;html=1;fillColor=#f8cecc;strokeColor=#b85450;" vertex="1" parent="1">
          <mxGeometry x="430" y="290" width="40" height="10" as="geometry" />
        </mxCell>
        <mxCell id="5phEGlq9JA1GHNM602J6-30" value="" style="rounded=0;whiteSpace=wrap;html=1;fillColor=#d5e8d4;strokeColor=#82b366;" vertex="1" parent="1">
          <mxGeometry x="430" y="310" width="40" height="10" as="geometry" />
        </mxCell>
        <mxCell id="5phEGlq9JA1GHNM602J6-31" value="" style="rounded=0;whiteSpace=wrap;html=1;fillColor=#f8cecc;strokeColor=#b85450;" vertex="1" parent="1">
          <mxGeometry x="430" y="320" width="40" height="10" as="geometry" />
        </mxCell>
        <mxCell id="5phEGlq9JA1GHNM602J6-34" value="" style="rounded=0;whiteSpace=wrap;html=1;fillColor=#dae8fc;strokeColor=#6c8ebf;" vertex="1" parent="1">
          <mxGeometry x="490" y="40" width="20" height="20" as="geometry" />
        </mxCell>
        <mxCell id="5phEGlq9JA1GHNM602J6-35" value="" style="rounded=0;whiteSpace=wrap;html=1;fillColor=#dae8fc;strokeColor=#6c8ebf;" vertex="1" parent="1">
          <mxGeometry x="520" y="40" width="20" height="20" as="geometry" />
        </mxCell>
        <mxCell id="5phEGlq9JA1GHNM602J6-36" value="" style="rounded=0;whiteSpace=wrap;html=1;fillColor=#dae8fc;strokeColor=#6c8ebf;" vertex="1" parent="1">
          <mxGeometry x="550" y="40" width="20" height="20" as="geometry" />
        </mxCell>
        <mxCell id="5phEGlq9JA1GHNM602J6-37" value="" style="rounded=0;whiteSpace=wrap;html=1;fillColor=#dae8fc;strokeColor=#6c8ebf;" vertex="1" parent="1">
          <mxGeometry x="580" y="40" width="20" height="20" as="geometry" />
        </mxCell>
        <mxCell id="5phEGlq9JA1GHNM602J6-38" value="" style="rounded=0;whiteSpace=wrap;html=1;fillColor=#dae8fc;strokeColor=#6c8ebf;" vertex="1" parent="1">
          <mxGeometry x="610" y="40" width="20" height="20" as="geometry" />
        </mxCell>
        <mxCell id="5phEGlq9JA1GHNM602J6-39" value="" style="rounded=0;whiteSpace=wrap;html=1;fillColor=#dae8fc;strokeColor=#6c8ebf;" vertex="1" parent="1">
          <mxGeometry x="640" y="40" width="20" height="20" as="geometry" />
        </mxCell>
        <mxCell id="5phEGlq9JA1GHNM602J6-40" value="" style="rounded=0;whiteSpace=wrap;html=1;fillColor=#dae8fc;strokeColor=#6c8ebf;" vertex="1" parent="1">
          <mxGeometry x="670" y="40" width="20" height="20" as="geometry" />
        </mxCell>
        <mxCell id="5phEGlq9JA1GHNM602J6-41" value="" style="rounded=0;whiteSpace=wrap;html=1;fillColor=#dae8fc;strokeColor=#6c8ebf;" vertex="1" parent="1">
          <mxGeometry x="700" y="40" width="20" height="20" as="geometry" />
        </mxCell>
        <mxCell id="5phEGlq9JA1GHNM602J6-42" value="" style="rounded=0;whiteSpace=wrap;html=1;fillColor=#dae8fc;strokeColor=#6c8ebf;" vertex="1" parent="1">
          <mxGeometry x="730" y="40" width="20" height="20" as="geometry" />
        </mxCell>
        <mxCell id="5phEGlq9JA1GHNM602J6-43" value="" style="rounded=0;whiteSpace=wrap;html=1;fillColor=#dae8fc;strokeColor=#6c8ebf;" vertex="1" parent="1">
          <mxGeometry x="760" y="40" width="20" height="20" as="geometry" />
        </mxCell>
        <mxCell id="5phEGlq9JA1GHNM602J6-44" value="" style="rounded=0;whiteSpace=wrap;html=1;fillColor=#dae8fc;strokeColor=#6c8ebf;" vertex="1" parent="1">
          <mxGeometry x="790" y="40" width="20" height="20" as="geometry" />
        </mxCell>
        <mxCell id="5phEGlq9JA1GHNM602J6-45" value="" style="rounded=0;whiteSpace=wrap;html=1;fillColor=#dae8fc;strokeColor=#6c8ebf;" vertex="1" parent="1">
          <mxGeometry x="490" y="70" width="20" height="20" as="geometry" />
        </mxCell>
        <mxCell id="5phEGlq9JA1GHNM602J6-46" value="" style="rounded=0;whiteSpace=wrap;html=1;fillColor=#dae8fc;strokeColor=#6c8ebf;" vertex="1" parent="1">
          <mxGeometry x="520" y="70" width="20" height="20" as="geometry" />
        </mxCell>
        <mxCell id="5phEGlq9JA1GHNM602J6-47" value="" style="rounded=0;whiteSpace=wrap;html=1;fillColor=#dae8fc;strokeColor=#6c8ebf;" vertex="1" parent="1">
          <mxGeometry x="550" y="70" width="20" height="20" as="geometry" />
        </mxCell>
        <mxCell id="5phEGlq9JA1GHNM602J6-48" value="" style="rounded=0;whiteSpace=wrap;html=1;fillColor=#dae8fc;strokeColor=#6c8ebf;" vertex="1" parent="1">
          <mxGeometry x="580" y="70" width="20" height="20" as="geometry" />
        </mxCell>
        <mxCell id="5phEGlq9JA1GHNM602J6-49" value="" style="rounded=0;whiteSpace=wrap;html=1;fillColor=#dae8fc;strokeColor=#6c8ebf;" vertex="1" parent="1">
          <mxGeometry x="610" y="70" width="20" height="20" as="geometry" />
        </mxCell>
        <mxCell id="5phEGlq9JA1GHNM602J6-50" value="" style="rounded=0;whiteSpace=wrap;html=1;fillColor=#dae8fc;strokeColor=#6c8ebf;" vertex="1" parent="1">
          <mxGeometry x="640" y="70" width="20" height="20" as="geometry" />
        </mxCell>
        <mxCell id="5phEGlq9JA1GHNM602J6-51" value="" style="rounded=0;whiteSpace=wrap;html=1;fillColor=#dae8fc;strokeColor=#6c8ebf;" vertex="1" parent="1">
          <mxGeometry x="670" y="70" width="20" height="20" as="geometry" />
        </mxCell>
        <mxCell id="5phEGlq9JA1GHNM602J6-52" value="" style="rounded=0;whiteSpace=wrap;html=1;fillColor=#dae8fc;strokeColor=#6c8ebf;" vertex="1" parent="1">
          <mxGeometry x="700" y="70" width="20" height="20" as="geometry" />
        </mxCell>
        <mxCell id="5phEGlq9JA1GHNM602J6-53" value="" style="rounded=0;whiteSpace=wrap;html=1;fillColor=#dae8fc;strokeColor=#6c8ebf;" vertex="1" parent="1">
          <mxGeometry x="730" y="70" width="20" height="20" as="geometry" />
        </mxCell>
        <mxCell id="5phEGlq9JA1GHNM602J6-54" value="" style="rounded=0;whiteSpace=wrap;html=1;fillColor=#dae8fc;strokeColor=#6c8ebf;" vertex="1" parent="1">
          <mxGeometry x="760" y="70" width="20" height="20" as="geometry" />
        </mxCell>
        <mxCell id="5phEGlq9JA1GHNM602J6-55" value="" style="rounded=0;whiteSpace=wrap;html=1;fillColor=#dae8fc;strokeColor=#6c8ebf;" vertex="1" parent="1">
          <mxGeometry x="790" y="70" width="20" height="20" as="geometry" />
        </mxCell>
        <mxCell id="5phEGlq9JA1GHNM602J6-56" value="" style="rounded=0;whiteSpace=wrap;html=1;fillColor=#dae8fc;strokeColor=#6c8ebf;" vertex="1" parent="1">
          <mxGeometry x="490" y="100" width="20" height="20" as="geometry" />
        </mxCell>
        <mxCell id="5phEGlq9JA1GHNM602J6-57" value="" style="rounded=0;whiteSpace=wrap;html=1;fillColor=#dae8fc;strokeColor=#6c8ebf;" vertex="1" parent="1">
          <mxGeometry x="520" y="100" width="20" height="20" as="geometry" />
        </mxCell>
        <mxCell id="5phEGlq9JA1GHNM602J6-58" value="" style="rounded=0;whiteSpace=wrap;html=1;fillColor=#dae8fc;strokeColor=#6c8ebf;" vertex="1" parent="1">
          <mxGeometry x="550" y="100" width="20" height="20" as="geometry" />
        </mxCell>
        <mxCell id="5phEGlq9JA1GHNM602J6-59" value="" style="rounded=0;whiteSpace=wrap;html=1;fillColor=#dae8fc;strokeColor=#6c8ebf;" vertex="1" parent="1">
          <mxGeometry x="580" y="100" width="20" height="20" as="geometry" />
        </mxCell>
        <mxCell id="5phEGlq9JA1GHNM602J6-60" value="" style="rounded=0;whiteSpace=wrap;html=1;fillColor=#dae8fc;strokeColor=#6c8ebf;" vertex="1" parent="1">
          <mxGeometry x="610" y="100" width="20" height="20" as="geometry" />
        </mxCell>
        <mxCell id="5phEGlq9JA1GHNM602J6-61" value="" style="rounded=0;whiteSpace=wrap;html=1;fillColor=#dae8fc;strokeColor=#6c8ebf;" vertex="1" parent="1">
          <mxGeometry x="640" y="100" width="20" height="20" as="geometry" />
        </mxCell>
        <mxCell id="5phEGlq9JA1GHNM602J6-62" value="" style="rounded=0;whiteSpace=wrap;html=1;fillColor=#dae8fc;strokeColor=#6c8ebf;" vertex="1" parent="1">
          <mxGeometry x="670" y="100" width="20" height="20" as="geometry" />
        </mxCell>
        <mxCell id="5phEGlq9JA1GHNM602J6-63" value="" style="rounded=0;whiteSpace=wrap;html=1;fillColor=#dae8fc;strokeColor=#6c8ebf;" vertex="1" parent="1">
          <mxGeometry x="700" y="100" width="20" height="20" as="geometry" />
        </mxCell>
        <mxCell id="5phEGlq9JA1GHNM602J6-64" value="" style="rounded=0;whiteSpace=wrap;html=1;fillColor=#dae8fc;strokeColor=#6c8ebf;" vertex="1" parent="1">
          <mxGeometry x="730" y="100" width="20" height="20" as="geometry" />
        </mxCell>
        <mxCell id="5phEGlq9JA1GHNM602J6-65" value="" style="rounded=0;whiteSpace=wrap;html=1;fillColor=#dae8fc;strokeColor=#6c8ebf;" vertex="1" parent="1">
          <mxGeometry x="760" y="100" width="20" height="20" as="geometry" />
        </mxCell>
        <mxCell id="5phEGlq9JA1GHNM602J6-66" value="" style="rounded=0;whiteSpace=wrap;html=1;fillColor=#dae8fc;strokeColor=#6c8ebf;" vertex="1" parent="1">
          <mxGeometry x="790" y="100" width="20" height="20" as="geometry" />
        </mxCell>
        <mxCell id="5phEGlq9JA1GHNM602J6-67" value="" style="rounded=0;whiteSpace=wrap;html=1;fillColor=#dae8fc;strokeColor=#6c8ebf;" vertex="1" parent="1">
          <mxGeometry x="490" y="130" width="20" height="20" as="geometry" />
        </mxCell>
        <mxCell id="5phEGlq9JA1GHNM602J6-68" value="" style="rounded=0;whiteSpace=wrap;html=1;fillColor=#dae8fc;strokeColor=#6c8ebf;" vertex="1" parent="1">
          <mxGeometry x="520" y="130" width="20" height="20" as="geometry" />
        </mxCell>
        <mxCell id="5phEGlq9JA1GHNM602J6-69" value="" style="rounded=0;whiteSpace=wrap;html=1;fillColor=#dae8fc;strokeColor=#6c8ebf;" vertex="1" parent="1">
          <mxGeometry x="550" y="130" width="20" height="20" as="geometry" />
        </mxCell>
        <mxCell id="5phEGlq9JA1GHNM602J6-70" value="" style="rounded=0;whiteSpace=wrap;html=1;fillColor=#dae8fc;strokeColor=#6c8ebf;" vertex="1" parent="1">
          <mxGeometry x="580" y="130" width="20" height="20" as="geometry" />
        </mxCell>
        <mxCell id="5phEGlq9JA1GHNM602J6-71" value="" style="rounded=0;whiteSpace=wrap;html=1;fillColor=#dae8fc;strokeColor=#6c8ebf;" vertex="1" parent="1">
          <mxGeometry x="610" y="130" width="20" height="20" as="geometry" />
        </mxCell>
        <mxCell id="5phEGlq9JA1GHNM602J6-72" value="" style="rounded=0;whiteSpace=wrap;html=1;fillColor=#dae8fc;strokeColor=#6c8ebf;" vertex="1" parent="1">
          <mxGeometry x="640" y="130" width="20" height="20" as="geometry" />
        </mxCell>
        <mxCell id="5phEGlq9JA1GHNM602J6-73" value="" style="rounded=0;whiteSpace=wrap;html=1;fillColor=#dae8fc;strokeColor=#6c8ebf;" vertex="1" parent="1">
          <mxGeometry x="670" y="130" width="20" height="20" as="geometry" />
        </mxCell>
        <mxCell id="5phEGlq9JA1GHNM602J6-74" value="" style="rounded=0;whiteSpace=wrap;html=1;fillColor=#dae8fc;strokeColor=#6c8ebf;" vertex="1" parent="1">
          <mxGeometry x="700" y="130" width="20" height="20" as="geometry" />
        </mxCell>
        <mxCell id="5phEGlq9JA1GHNM602J6-75" value="" style="rounded=0;whiteSpace=wrap;html=1;fillColor=#dae8fc;strokeColor=#6c8ebf;" vertex="1" parent="1">
          <mxGeometry x="730" y="130" width="20" height="20" as="geometry" />
        </mxCell>
        <mxCell id="5phEGlq9JA1GHNM602J6-76" value="" style="rounded=0;whiteSpace=wrap;html=1;fillColor=#dae8fc;strokeColor=#6c8ebf;" vertex="1" parent="1">
          <mxGeometry x="760" y="130" width="20" height="20" as="geometry" />
        </mxCell>
        <mxCell id="5phEGlq9JA1GHNM602J6-77" value="" style="rounded=0;whiteSpace=wrap;html=1;fillColor=#dae8fc;strokeColor=#6c8ebf;" vertex="1" parent="1">
          <mxGeometry x="790" y="130" width="20" height="20" as="geometry" />
        </mxCell>
        <mxCell id="5phEGlq9JA1GHNM602J6-78" value="" style="rounded=0;whiteSpace=wrap;html=1;fillColor=#dae8fc;strokeColor=#6c8ebf;" vertex="1" parent="1">
          <mxGeometry x="490" y="160" width="20" height="20" as="geometry" />
        </mxCell>
        <mxCell id="5phEGlq9JA1GHNM602J6-79" value="" style="rounded=0;whiteSpace=wrap;html=1;fillColor=#dae8fc;strokeColor=#6c8ebf;" vertex="1" parent="1">
          <mxGeometry x="520" y="160" width="20" height="20" as="geometry" />
        </mxCell>
        <mxCell id="5phEGlq9JA1GHNM602J6-80" value="" style="rounded=0;whiteSpace=wrap;html=1;fillColor=#dae8fc;strokeColor=#6c8ebf;" vertex="1" parent="1">
          <mxGeometry x="550" y="160" width="20" height="20" as="geometry" />
        </mxCell>
        <mxCell id="5phEGlq9JA1GHNM602J6-81" value="" style="rounded=0;whiteSpace=wrap;html=1;fillColor=#dae8fc;strokeColor=#6c8ebf;" vertex="1" parent="1">
          <mxGeometry x="580" y="160" width="20" height="20" as="geometry" />
        </mxCell>
        <mxCell id="5phEGlq9JA1GHNM602J6-82" value="" style="rounded=0;whiteSpace=wrap;html=1;fillColor=#dae8fc;strokeColor=#6c8ebf;" vertex="1" parent="1">
          <mxGeometry x="610" y="160" width="20" height="20" as="geometry" />
        </mxCell>
        <mxCell id="5phEGlq9JA1GHNM602J6-83" value="" style="rounded=0;whiteSpace=wrap;html=1;fillColor=#dae8fc;strokeColor=#6c8ebf;" vertex="1" parent="1">
          <mxGeometry x="640" y="160" width="20" height="20" as="geometry" />
        </mxCell>
        <mxCell id="5phEGlq9JA1GHNM602J6-84" value="" style="rounded=0;whiteSpace=wrap;html=1;fillColor=#dae8fc;strokeColor=#6c8ebf;" vertex="1" parent="1">
          <mxGeometry x="670" y="160" width="20" height="20" as="geometry" />
        </mxCell>
        <mxCell id="5phEGlq9JA1GHNM602J6-85" value="" style="rounded=0;whiteSpace=wrap;html=1;fillColor=#dae8fc;strokeColor=#6c8ebf;" vertex="1" parent="1">
          <mxGeometry x="700" y="160" width="20" height="20" as="geometry" />
        </mxCell>
        <mxCell id="5phEGlq9JA1GHNM602J6-86" value="" style="rounded=0;whiteSpace=wrap;html=1;fillColor=#dae8fc;strokeColor=#6c8ebf;" vertex="1" parent="1">
          <mxGeometry x="730" y="160" width="20" height="20" as="geometry" />
        </mxCell>
        <mxCell id="5phEGlq9JA1GHNM602J6-87" value="" style="rounded=0;whiteSpace=wrap;html=1;fillColor=#dae8fc;strokeColor=#6c8ebf;" vertex="1" parent="1">
          <mxGeometry x="760" y="160" width="20" height="20" as="geometry" />
        </mxCell>
        <mxCell id="5phEGlq9JA1GHNM602J6-88" value="" style="rounded=0;whiteSpace=wrap;html=1;fillColor=#dae8fc;strokeColor=#6c8ebf;" vertex="1" parent="1">
          <mxGeometry x="790" y="160" width="20" height="20" as="geometry" />
        </mxCell>
        <mxCell id="5phEGlq9JA1GHNM602J6-89" value="" style="rounded=0;whiteSpace=wrap;html=1;fillColor=#dae8fc;strokeColor=#6c8ebf;" vertex="1" parent="1">
          <mxGeometry x="490" y="190" width="20" height="20" as="geometry" />
        </mxCell>
        <mxCell id="5phEGlq9JA1GHNM602J6-90" value="" style="rounded=0;whiteSpace=wrap;html=1;fillColor=#dae8fc;strokeColor=#6c8ebf;" vertex="1" parent="1">
          <mxGeometry x="520" y="190" width="20" height="20" as="geometry" />
        </mxCell>
        <mxCell id="5phEGlq9JA1GHNM602J6-91" value="" style="rounded=0;whiteSpace=wrap;html=1;fillColor=#dae8fc;strokeColor=#6c8ebf;" vertex="1" parent="1">
          <mxGeometry x="550" y="190" width="20" height="20" as="geometry" />
        </mxCell>
        <mxCell id="5phEGlq9JA1GHNM602J6-92" value="" style="rounded=0;whiteSpace=wrap;html=1;fillColor=#dae8fc;strokeColor=#6c8ebf;" vertex="1" parent="1">
          <mxGeometry x="580" y="190" width="20" height="20" as="geometry" />
        </mxCell>
        <mxCell id="5phEGlq9JA1GHNM602J6-93" value="" style="rounded=0;whiteSpace=wrap;html=1;fillColor=#dae8fc;strokeColor=#6c8ebf;" vertex="1" parent="1">
          <mxGeometry x="610" y="190" width="20" height="20" as="geometry" />
        </mxCell>
        <mxCell id="5phEGlq9JA1GHNM602J6-94" value="" style="rounded=0;whiteSpace=wrap;html=1;fillColor=#dae8fc;strokeColor=#6c8ebf;" vertex="1" parent="1">
          <mxGeometry x="640" y="190" width="20" height="20" as="geometry" />
        </mxCell>
        <mxCell id="5phEGlq9JA1GHNM602J6-95" value="" style="rounded=0;whiteSpace=wrap;html=1;fillColor=#dae8fc;strokeColor=#6c8ebf;" vertex="1" parent="1">
          <mxGeometry x="670" y="190" width="20" height="20" as="geometry" />
        </mxCell>
        <mxCell id="5phEGlq9JA1GHNM602J6-96" value="" style="rounded=0;whiteSpace=wrap;html=1;fillColor=#dae8fc;strokeColor=#6c8ebf;" vertex="1" parent="1">
          <mxGeometry x="700" y="190" width="20" height="20" as="geometry" />
        </mxCell>
        <mxCell id="5phEGlq9JA1GHNM602J6-97" value="" style="rounded=0;whiteSpace=wrap;html=1;fillColor=#dae8fc;strokeColor=#6c8ebf;" vertex="1" parent="1">
          <mxGeometry x="730" y="190" width="20" height="20" as="geometry" />
        </mxCell>
        <mxCell id="5phEGlq9JA1GHNM602J6-98" value="" style="rounded=0;whiteSpace=wrap;html=1;fillColor=#dae8fc;strokeColor=#6c8ebf;" vertex="1" parent="1">
          <mxGeometry x="760" y="190" width="20" height="20" as="geometry" />
        </mxCell>
        <mxCell id="5phEGlq9JA1GHNM602J6-99" value="" style="rounded=0;whiteSpace=wrap;html=1;fillColor=#dae8fc;strokeColor=#6c8ebf;" vertex="1" parent="1">
          <mxGeometry x="790" y="190" width="20" height="20" as="geometry" />
        </mxCell>
        <mxCell id="5phEGlq9JA1GHNM602J6-100" value="" style="rounded=0;whiteSpace=wrap;html=1;fillColor=#dae8fc;strokeColor=#6c8ebf;" vertex="1" parent="1">
          <mxGeometry x="490" y="220" width="20" height="20" as="geometry" />
        </mxCell>
        <mxCell id="5phEGlq9JA1GHNM602J6-101" value="" style="rounded=0;whiteSpace=wrap;html=1;fillColor=#dae8fc;strokeColor=#6c8ebf;" vertex="1" parent="1">
          <mxGeometry x="520" y="220" width="20" height="20" as="geometry" />
        </mxCell>
        <mxCell id="5phEGlq9JA1GHNM602J6-102" value="" style="rounded=0;whiteSpace=wrap;html=1;fillColor=#dae8fc;strokeColor=#6c8ebf;" vertex="1" parent="1">
          <mxGeometry x="550" y="220" width="20" height="20" as="geometry" />
        </mxCell>
        <mxCell id="5phEGlq9JA1GHNM602J6-103" value="" style="rounded=0;whiteSpace=wrap;html=1;fillColor=#dae8fc;strokeColor=#6c8ebf;" vertex="1" parent="1">
          <mxGeometry x="580" y="220" width="20" height="20" as="geometry" />
        </mxCell>
        <mxCell id="5phEGlq9JA1GHNM602J6-104" value="" style="rounded=0;whiteSpace=wrap;html=1;fillColor=#dae8fc;strokeColor=#6c8ebf;" vertex="1" parent="1">
          <mxGeometry x="610" y="220" width="20" height="20" as="geometry" />
        </mxCell>
        <mxCell id="5phEGlq9JA1GHNM602J6-105" value="" style="rounded=0;whiteSpace=wrap;html=1;fillColor=#dae8fc;strokeColor=#6c8ebf;" vertex="1" parent="1">
          <mxGeometry x="640" y="220" width="20" height="20" as="geometry" />
        </mxCell>
        <mxCell id="5phEGlq9JA1GHNM602J6-106" value="" style="rounded=0;whiteSpace=wrap;html=1;fillColor=#dae8fc;strokeColor=#6c8ebf;" vertex="1" parent="1">
          <mxGeometry x="670" y="220" width="20" height="20" as="geometry" />
        </mxCell>
        <mxCell id="5phEGlq9JA1GHNM602J6-107" value="" style="rounded=0;whiteSpace=wrap;html=1;fillColor=#dae8fc;strokeColor=#6c8ebf;" vertex="1" parent="1">
          <mxGeometry x="700" y="220" width="20" height="20" as="geometry" />
        </mxCell>
        <mxCell id="5phEGlq9JA1GHNM602J6-108" value="" style="rounded=0;whiteSpace=wrap;html=1;fillColor=#dae8fc;strokeColor=#6c8ebf;" vertex="1" parent="1">
          <mxGeometry x="730" y="220" width="20" height="20" as="geometry" />
        </mxCell>
        <mxCell id="5phEGlq9JA1GHNM602J6-109" value="" style="rounded=0;whiteSpace=wrap;html=1;fillColor=#dae8fc;strokeColor=#6c8ebf;" vertex="1" parent="1">
          <mxGeometry x="760" y="220" width="20" height="20" as="geometry" />
        </mxCell>
        <mxCell id="5phEGlq9JA1GHNM602J6-110" value="" style="rounded=0;whiteSpace=wrap;html=1;fillColor=#dae8fc;strokeColor=#6c8ebf;" vertex="1" parent="1">
          <mxGeometry x="790" y="220" width="20" height="20" as="geometry" />
        </mxCell>
        <mxCell id="5phEGlq9JA1GHNM602J6-111" value="" style="rounded=0;whiteSpace=wrap;html=1;fillColor=#dae8fc;strokeColor=#6c8ebf;" vertex="1" parent="1">
          <mxGeometry x="490" y="250" width="20" height="20" as="geometry" />
        </mxCell>
        <mxCell id="5phEGlq9JA1GHNM602J6-112" value="" style="rounded=0;whiteSpace=wrap;html=1;fillColor=#dae8fc;strokeColor=#6c8ebf;" vertex="1" parent="1">
          <mxGeometry x="520" y="250" width="20" height="20" as="geometry" />
        </mxCell>
        <mxCell id="5phEGlq9JA1GHNM602J6-113" value="" style="rounded=0;whiteSpace=wrap;html=1;fillColor=#dae8fc;strokeColor=#6c8ebf;" vertex="1" parent="1">
          <mxGeometry x="550" y="250" width="20" height="20" as="geometry" />
        </mxCell>
        <mxCell id="5phEGlq9JA1GHNM602J6-114" value="" style="rounded=0;whiteSpace=wrap;html=1;fillColor=#dae8fc;strokeColor=#6c8ebf;" vertex="1" parent="1">
          <mxGeometry x="580" y="250" width="20" height="20" as="geometry" />
        </mxCell>
        <mxCell id="5phEGlq9JA1GHNM602J6-115" value="" style="rounded=0;whiteSpace=wrap;html=1;fillColor=#dae8fc;strokeColor=#6c8ebf;" vertex="1" parent="1">
          <mxGeometry x="610" y="250" width="20" height="20" as="geometry" />
        </mxCell>
        <mxCell id="5phEGlq9JA1GHNM602J6-116" value="" style="rounded=0;whiteSpace=wrap;html=1;fillColor=#dae8fc;strokeColor=#6c8ebf;" vertex="1" parent="1">
          <mxGeometry x="640" y="250" width="20" height="20" as="geometry" />
        </mxCell>
        <mxCell id="5phEGlq9JA1GHNM602J6-117" value="" style="rounded=0;whiteSpace=wrap;html=1;fillColor=#dae8fc;strokeColor=#6c8ebf;" vertex="1" parent="1">
          <mxGeometry x="670" y="250" width="20" height="20" as="geometry" />
        </mxCell>
        <mxCell id="5phEGlq9JA1GHNM602J6-118" value="" style="rounded=0;whiteSpace=wrap;html=1;fillColor=#dae8fc;strokeColor=#6c8ebf;" vertex="1" parent="1">
          <mxGeometry x="700" y="250" width="20" height="20" as="geometry" />
        </mxCell>
        <mxCell id="5phEGlq9JA1GHNM602J6-119" value="" style="rounded=0;whiteSpace=wrap;html=1;fillColor=#dae8fc;strokeColor=#6c8ebf;" vertex="1" parent="1">
          <mxGeometry x="730" y="250" width="20" height="20" as="geometry" />
        </mxCell>
        <mxCell id="5phEGlq9JA1GHNM602J6-120" value="" style="rounded=0;whiteSpace=wrap;html=1;fillColor=#dae8fc;strokeColor=#6c8ebf;" vertex="1" parent="1">
          <mxGeometry x="760" y="250" width="20" height="20" as="geometry" />
        </mxCell>
        <mxCell id="5phEGlq9JA1GHNM602J6-121" value="" style="rounded=0;whiteSpace=wrap;html=1;fillColor=#dae8fc;strokeColor=#6c8ebf;" vertex="1" parent="1">
          <mxGeometry x="790" y="250" width="20" height="20" as="geometry" />
        </mxCell>
        <mxCell id="5phEGlq9JA1GHNM602J6-122" value="" style="rounded=0;whiteSpace=wrap;html=1;fillColor=#dae8fc;strokeColor=#6c8ebf;" vertex="1" parent="1">
          <mxGeometry x="490" y="280" width="20" height="20" as="geometry" />
        </mxCell>
        <mxCell id="5phEGlq9JA1GHNM602J6-123" value="" style="rounded=0;whiteSpace=wrap;html=1;fillColor=#dae8fc;strokeColor=#6c8ebf;" vertex="1" parent="1">
          <mxGeometry x="520" y="280" width="20" height="20" as="geometry" />
        </mxCell>
        <mxCell id="5phEGlq9JA1GHNM602J6-124" value="" style="rounded=0;whiteSpace=wrap;html=1;fillColor=#dae8fc;strokeColor=#6c8ebf;" vertex="1" parent="1">
          <mxGeometry x="550" y="280" width="20" height="20" as="geometry" />
        </mxCell>
        <mxCell id="5phEGlq9JA1GHNM602J6-125" value="" style="rounded=0;whiteSpace=wrap;html=1;fillColor=#dae8fc;strokeColor=#6c8ebf;" vertex="1" parent="1">
          <mxGeometry x="580" y="280" width="20" height="20" as="geometry" />
        </mxCell>
        <mxCell id="5phEGlq9JA1GHNM602J6-126" value="" style="rounded=0;whiteSpace=wrap;html=1;fillColor=#dae8fc;strokeColor=#6c8ebf;" vertex="1" parent="1">
          <mxGeometry x="610" y="280" width="20" height="20" as="geometry" />
        </mxCell>
        <mxCell id="5phEGlq9JA1GHNM602J6-127" value="" style="rounded=0;whiteSpace=wrap;html=1;fillColor=#dae8fc;strokeColor=#6c8ebf;" vertex="1" parent="1">
          <mxGeometry x="640" y="280" width="20" height="20" as="geometry" />
        </mxCell>
        <mxCell id="5phEGlq9JA1GHNM602J6-128" value="" style="rounded=0;whiteSpace=wrap;html=1;fillColor=#dae8fc;strokeColor=#6c8ebf;" vertex="1" parent="1">
          <mxGeometry x="670" y="280" width="20" height="20" as="geometry" />
        </mxCell>
        <mxCell id="5phEGlq9JA1GHNM602J6-129" value="" style="rounded=0;whiteSpace=wrap;html=1;fillColor=#dae8fc;strokeColor=#6c8ebf;" vertex="1" parent="1">
          <mxGeometry x="700" y="280" width="20" height="20" as="geometry" />
        </mxCell>
        <mxCell id="5phEGlq9JA1GHNM602J6-130" value="" style="rounded=0;whiteSpace=wrap;html=1;fillColor=#dae8fc;strokeColor=#6c8ebf;" vertex="1" parent="1">
          <mxGeometry x="730" y="280" width="20" height="20" as="geometry" />
        </mxCell>
        <mxCell id="5phEGlq9JA1GHNM602J6-131" value="" style="rounded=0;whiteSpace=wrap;html=1;fillColor=#dae8fc;strokeColor=#6c8ebf;" vertex="1" parent="1">
          <mxGeometry x="760" y="280" width="20" height="20" as="geometry" />
        </mxCell>
        <mxCell id="5phEGlq9JA1GHNM602J6-132" value="" style="rounded=0;whiteSpace=wrap;html=1;fillColor=#dae8fc;strokeColor=#6c8ebf;" vertex="1" parent="1">
          <mxGeometry x="790" y="280" width="20" height="20" as="geometry" />
        </mxCell>
        <mxCell id="5phEGlq9JA1GHNM602J6-133" value="" style="rounded=0;whiteSpace=wrap;html=1;fillColor=#dae8fc;strokeColor=#6c8ebf;" vertex="1" parent="1">
          <mxGeometry x="490" y="310" width="20" height="20" as="geometry" />
        </mxCell>
        <mxCell id="5phEGlq9JA1GHNM602J6-134" value="" style="rounded=0;whiteSpace=wrap;html=1;fillColor=#dae8fc;strokeColor=#6c8ebf;" vertex="1" parent="1">
          <mxGeometry x="520" y="310" width="20" height="20" as="geometry" />
        </mxCell>
        <mxCell id="5phEGlq9JA1GHNM602J6-135" value="" style="rounded=0;whiteSpace=wrap;html=1;fillColor=#dae8fc;strokeColor=#6c8ebf;" vertex="1" parent="1">
          <mxGeometry x="550" y="310" width="20" height="20" as="geometry" />
        </mxCell>
        <mxCell id="5phEGlq9JA1GHNM602J6-136" value="" style="rounded=0;whiteSpace=wrap;html=1;fillColor=#dae8fc;strokeColor=#6c8ebf;" vertex="1" parent="1">
          <mxGeometry x="580" y="310" width="20" height="20" as="geometry" />
        </mxCell>
        <mxCell id="5phEGlq9JA1GHNM602J6-137" value="" style="rounded=0;whiteSpace=wrap;html=1;fillColor=#dae8fc;strokeColor=#6c8ebf;" vertex="1" parent="1">
          <mxGeometry x="610" y="310" width="20" height="20" as="geometry" />
        </mxCell>
        <mxCell id="5phEGlq9JA1GHNM602J6-138" value="" style="rounded=0;whiteSpace=wrap;html=1;fillColor=#dae8fc;strokeColor=#6c8ebf;" vertex="1" parent="1">
          <mxGeometry x="640" y="310" width="20" height="20" as="geometry" />
        </mxCell>
        <mxCell id="5phEGlq9JA1GHNM602J6-139" value="" style="rounded=0;whiteSpace=wrap;html=1;fillColor=#dae8fc;strokeColor=#6c8ebf;" vertex="1" parent="1">
          <mxGeometry x="670" y="310" width="20" height="20" as="geometry" />
        </mxCell>
        <mxCell id="5phEGlq9JA1GHNM602J6-140" value="" style="rounded=0;whiteSpace=wrap;html=1;fillColor=#dae8fc;strokeColor=#6c8ebf;" vertex="1" parent="1">
          <mxGeometry x="700" y="310" width="20" height="20" as="geometry" />
        </mxCell>
        <mxCell id="5phEGlq9JA1GHNM602J6-141" value="" style="rounded=0;whiteSpace=wrap;html=1;fillColor=#dae8fc;strokeColor=#6c8ebf;" vertex="1" parent="1">
          <mxGeometry x="730" y="310" width="20" height="20" as="geometry" />
        </mxCell>
        <mxCell id="5phEGlq9JA1GHNM602J6-142" value="" style="rounded=0;whiteSpace=wrap;html=1;fillColor=#dae8fc;strokeColor=#6c8ebf;" vertex="1" parent="1">
          <mxGeometry x="760" y="310" width="20" height="20" as="geometry" />
        </mxCell>
        <mxCell id="5phEGlq9JA1GHNM602J6-143" value="" style="rounded=0;whiteSpace=wrap;html=1;fillColor=#dae8fc;strokeColor=#6c8ebf;" vertex="1" parent="1">
          <mxGeometry x="790" y="310" width="20" height="20" as="geometry" />
        </mxCell>
      </root>
    </mxGraphModel>
  </diagram>
</mxfile>
